{"glyphs":{":":{"x_min":0,"x_max":336,"ha":336,"o":"m 123 0 q 104 0 96 8 q 89 16 89 38 l 89 129 q 89 151 96 159 q 104 167 123 167 l 212 167 q 231 167 239 159 q 247 150 247 129 l 247 38 q 247 17 239 8 q 231 0 212 0 z m 89 432 q 89 454 96 462 q 104 470 123 470 l 212 470 q 231 470 239 462 q 247 454 247 432 l 247 350 q 247 329 239 320 q 231 312 212 312 l 123 312 q 104 312 96 320 q 89 328 89 350 z"},"$":{"x_min":0,"x_max":623,"ha":623,"o":"m 266 594 q 231 592 211 578 q 190 564 190 544 q 190 525 208 512 q 225 499 266 486 z m 351 100 q 399 104 428 127 q 457 150 457 184 q 457 214 431 239 q 406 263 351 285 z m 266 318 q 151 353 101 398 q 51 444 51 513 q 51 585 105 630 q 159 675 248 675 l 266 675 l 266 769 q 266 772 268 774 q 271 776 274 776 l 345 776 q 348 776 350 774 q 351 773 351 770 l 351 665 q 359 668 367 684 q 375 699 387 699 q 398 699 410 689 q 422 679 453 640 q 490 593 507 567 q 523 541 523 529 q 523 519 516 511 q 509 503 500 503 q 490 503 443 535 q 396 567 351 585 l 351 464 q 487 429 549 369 q 610 310 610 214 q 610 120 543 64 q 477 8 364 8 l 351 8 l 351 -111 q 351 -114 349 -117 q 347 -121 344 -121 l 275 -121 q 270 -121 268 -119 q 266 -117 266 -112 l 266 16 q 255 18 237 21 q 187 31 180 31 q 173 31 160 9 q 147 -13 132 -13 q 112 -13 82 41 q 76 52 72 58 q 40 114 26 142 q 13 171 13 185 q 13 198 19 205 q 24 212 35 212 q 48 212 75 188 q 93 173 105 165 q 145 137 185 122 q 224 107 266 103 z"},"?":{"x_min":0,"x_max":422,"ha":422,"o":"m 155 278 q 155 309 196 367 l 198 370 q 239 426 251 455 q 263 483 263 512 q 263 546 250 566 q 236 586 212 586 q 190 586 176 571 q 161 556 161 533 q 161 518 167 507 q 173 496 180 496 l 183 496 q 188 496 190 494 q 193 493 193 490 q 193 476 169 459 q 146 442 121 442 q 74 442 46 474 q 18 506 18 559 q 18 629 73 677 q 128 726 209 726 q 294 726 347 669 q 400 611 400 520 q 400 473 383 433 q 367 393 334 361 q 320 348 296 327 q 250 286 240 267 q 233 254 230 230 q 226 205 212 205 l 184 205 q 171 205 163 216 q 155 228 155 247 z m 150 0 q 130 0 122 9 q 114 17 114 39 l 114 133 q 114 155 122 163 q 130 172 150 172 l 242 172 q 262 172 269 164 q 277 155 277 133 l 277 39 q 277 17 269 8 q 262 0 242 0 z"},"<":{"x_min":0,"x_max":833,"ha":833,"o":"m 704 583 l 704 476 l 268 298 l 704 120 l 704 13 l 129 250 l 129 347 z"},"'":{"x_min":0,"x_max":178,"ha":178,"o":"m 99 416 l 79 416 l 40 641 q 39 647 39 651 q 38 656 38 659 q 38 685 52 700 q 65 715 89 715 q 112 715 126 701 q 139 687 139 661 q 139 653 139 649 q 139 645 138 641 z"},"=":{"x_min":0,"x_max":833,"ha":833,"o":"m 124 242 l 709 242 l 709 145 l 124 145 z m 124 452 l 709 452 l 709 355 l 124 355 z"},"a":{"x_min":0,"x_max":603,"ha":603,"o":"m 346 206 q 341 221 328 228 q 314 235 290 235 q 245 235 217 212 q 190 189 190 151 q 190 116 215 94 q 239 72 279 72 q 318 72 342 87 q 365 103 365 129 q 365 134 364 139 q 363 145 361 154 z m 393 49 q 346 19 299 4 q 253 -11 204 -11 q 128 -11 81 28 q 34 66 34 127 q 34 206 101 251 q 167 297 283 297 q 297 297 305 297 q 313 296 319 296 q 304 353 282 374 q 260 395 217 395 q 181 395 142 371 q 103 346 94 346 q 84 346 78 353 q 72 360 72 371 q 72 409 132 445 q 191 482 268 482 q 344 482 389 443 q 434 403 463 311 l 512 156 q 524 115 539 97 q 554 79 574 79 q 584 79 594 86 q 597 89 598 89 q 604 89 608 80 q 612 70 612 57 q 612 28 584 10 q 557 -7 510 -7 q 473 -7 444 7 q 416 21 393 49 z"},"L":{"x_min":0,"x_max":675,"ha":675,"o":"m 89 0 q 58 0 43 10 q 29 21 29 42 q 29 66 63 79 q 73 83 77 85 q 89 91 94 101 q 99 110 99 129 l 99 581 q 99 600 94 610 q 89 620 77 626 q 73 628 63 632 q 29 645 29 669 q 29 691 43 701 q 58 711 89 711 l 287 711 q 318 711 333 701 q 347 691 347 669 q 347 645 313 632 q 304 628 300 626 q 288 620 282 610 q 277 600 277 581 l 277 144 q 277 123 288 112 q 299 101 319 101 l 424 101 q 464 101 498 111 q 531 122 565 144 q 578 152 598 167 q 637 196 653 196 q 665 196 673 188 q 681 179 681 166 q 681 158 678 150 q 675 142 666 128 l 585 -4 q 572 -26 563 -33 q 554 -40 543 -40 q 534 -40 512 -20 q 489 0 464 0 z"},"3":{"x_min":0,"x_max":623,"ha":623,"o":"m 351 427 q 460 426 522 373 q 584 320 584 227 q 584 117 500 50 q 416 -17 276 -17 q 164 -17 98 30 q 32 77 32 156 q 32 204 64 238 q 96 273 138 273 q 183 273 216 246 q 248 218 248 185 q 248 181 247 178 q 246 176 243 176 q 241 176 236 177 q 230 178 227 178 q 211 178 199 166 q 187 153 187 136 q 187 111 209 94 q 231 78 266 78 q 321 78 357 118 q 393 158 393 219 q 393 277 355 316 q 316 355 260 355 q 242 355 215 350 q 187 345 178 345 q 167 345 162 351 q 156 356 156 366 q 156 373 159 378 q 163 383 171 391 l 343 544 l 262 544 q 217 544 192 537 q 167 529 144 512 q 131 502 109 479 q 88 456 75 456 q 65 456 59 462 q 52 469 52 478 q 52 485 54 494 q 57 503 63 515 l 135 671 q 144 691 150 698 q 157 704 165 704 q 169 704 197 688 q 226 672 263 672 q 271 672 284 672 q 298 672 314 673 l 515 680 l 540 680 q 555 680 565 671 q 576 661 576 648 q 576 639 571 630 q 565 622 551 608 z"},";":{"x_min":0,"x_max":336,"ha":336,"o":"m 89 432 q 89 454 96 462 q 104 470 123 470 l 212 470 q 231 470 239 462 q 247 454 247 432 l 247 350 q 247 329 239 320 q 231 312 212 312 l 123 312 q 104 312 96 320 q 89 328 89 350 z m 89 129 q 89 151 96 159 q 104 167 123 167 l 212 167 q 231 167 239 159 q 247 150 247 129 l 247 3 q 247 -67 212 -107 q 177 -148 118 -148 q 104 -148 96 -140 q 88 -133 88 -120 q 88 -106 110 -94 q 119 -89 123 -86 q 139 -75 146 -63 q 154 -51 154 -35 q 154 -17 145 -9 q 137 -1 108 2 q 98 3 94 12 q 89 21 89 38 z"},"J":{"x_min":0,"x_max":585,"ha":585,"o":"m 315 581 q 315 600 310 610 q 305 620 293 626 q 288 628 279 632 q 245 645 245 669 q 245 691 260 701 q 274 711 305 711 l 503 711 q 534 711 549 701 q 563 691 563 669 q 563 645 529 632 q 520 628 515 626 q 503 620 498 610 q 493 600 493 581 l 493 225 q 493 111 431 50 q 368 -12 253 -12 q 153 -12 87 47 q 22 106 22 194 q 22 262 60 309 q 99 355 153 355 q 197 355 226 326 q 254 297 254 251 q 254 225 249 209 q 245 194 237 194 q 233 194 226 194 q 219 195 216 195 q 192 195 177 182 q 162 170 162 149 q 162 122 181 105 q 199 88 228 88 q 273 88 294 121 q 315 155 315 226 z"},"V":{"x_min":0,"x_max":830,"ha":830,"o":"m 352 0 q 328 0 317 27 l 316 30 l 125 512 q 102 569 89 594 q 75 619 64 625 q 57 629 43 636 q 5 655 5 680 q 5 694 15 703 q 25 711 44 711 l 291 711 q 311 711 323 700 q 335 689 335 673 q 335 659 329 651 q 322 643 304 635 q 288 628 282 622 q 277 616 277 606 q 277 598 283 583 q 285 579 286 577 l 442 190 l 590 544 q 600 567 605 588 q 611 609 611 618 q 611 626 585 642 q 560 658 560 679 q 560 695 571 703 q 582 711 603 711 l 781 711 q 802 711 813 701 q 825 692 825 675 q 825 649 793 636 q 782 631 777 628 q 766 622 752 599 q 739 577 722 535 l 515 31 q 508 13 500 7 q 492 0 479 0 z"},"\"":{"x_min":0,"x_max":345,"ha":345,"o":"m 265 416 l 245 416 l 206 641 q 205 647 205 651 q 204 656 204 659 q 204 685 218 700 q 231 715 255 715 q 279 715 292 700 q 306 686 306 661 q 306 658 306 654 q 305 649 304 641 z m 99 416 l 79 416 l 40 641 q 40 645 39 648 q 39 652 39 659 q 39 685 53 700 q 66 715 89 715 q 112 715 126 701 q 139 687 139 661 q 139 653 139 649 q 139 645 138 641 z"},"7":{"x_min":0,"x_max":623,"ha":623,"o":"m 160 0 q 145 0 139 4 q 133 7 133 16 q 133 23 143 39 l 144 40 l 433 481 q 442 496 446 503 q 449 511 449 516 q 449 524 442 527 q 436 530 418 530 l 221 530 q 180 530 157 524 q 134 518 113 504 q 102 497 84 483 q 60 463 48 463 q 38 463 31 470 q 24 477 24 487 q 24 497 30 507 q 30 509 31 510 l 123 699 q 127 708 134 714 q 141 719 149 719 q 162 719 174 704 q 176 701 178 699 q 187 689 201 685 q 216 681 240 681 l 562 681 q 583 681 593 674 q 603 667 603 653 q 603 645 599 632 q 595 618 585 594 l 351 30 q 350 28 349 24 q 338 0 315 0 z"},"S":{"x_min":0,"x_max":804,"ha":804,"o":"m 50 133 q 41 148 35 162 q 30 175 30 185 q 30 198 37 206 q 44 214 56 214 q 73 214 110 186 q 132 169 146 161 q 207 123 270 106 q 332 89 412 89 q 487 89 532 115 q 576 141 576 183 q 576 222 536 250 q 495 279 370 321 q 350 328 312 340 q 195 379 163 400 q 119 430 98 465 q 77 500 77 543 q 77 623 142 673 q 207 723 310 723 q 350 723 391 717 q 433 710 434 710 q 445 710 452 714 q 458 719 464 730 q 469 740 475 745 q 481 750 490 750 q 502 750 516 741 q 529 731 547 710 l 627 617 q 646 596 652 584 q 658 572 658 562 q 658 550 650 542 q 641 534 629 534 q 613 534 572 562 q 551 575 538 583 q 497 608 459 620 q 422 632 386 632 q 337 632 309 617 q 281 602 281 576 q 281 535 423 497 q 476 483 506 474 q 644 433 704 373 q 764 312 764 216 q 764 113 683 52 q 601 -10 461 -10 q 390 -10 314 3 q 239 15 236 15 q 228 15 211 -10 q 195 -34 176 -34 q 164 -34 153 -25 q 143 -17 125 12 z"},"}":{"x_min":0,"x_max":500,"ha":500,"o":"m 84 740 q 199 740 241 705 q 283 669 283 571 l 283 477 q 283 396 311 366 q 338 336 414 329 l 414 292 q 338 285 311 255 q 283 225 283 144 l 283 50 q 283 -47 242 -83 q 200 -119 90 -119 l 84 -119 l 84 -90 q 142 -89 164 -63 q 186 -38 186 39 l 186 105 q 186 215 212 255 q 238 294 308 310 q 238 326 212 366 q 186 406 186 516 l 186 581 q 186 657 164 683 q 142 709 84 710 z"},"Z":{"x_min":0,"x_max":764,"ha":764,"o":"m 695 711 q 722 711 730 707 q 739 702 739 691 q 739 681 721 659 q 718 656 717 654 l 272 104 l 467 104 q 514 104 554 117 q 595 129 635 157 q 650 167 675 186 q 719 218 733 218 q 742 218 748 212 q 754 206 754 196 q 754 185 737 152 q 720 119 678 52 q 675 47 669 38 q 626 -31 606 -31 q 594 -31 580 -16 q 572 -9 568 -6 q 563 -3 555 -1 q 547 0 525 0 l 50 0 q 24 0 14 5 q 4 11 4 24 q 4 36 19 55 q 21 58 22 59 l 476 617 l 297 617 q 258 617 224 606 q 190 595 161 573 q 145 561 119 539 q 84 509 71 509 q 61 509 55 515 q 49 521 49 532 q 49 550 118 664 l 123 673 q 150 717 160 728 q 170 739 180 739 q 188 739 204 725 q 221 711 240 711 z"},"x":{"x_min":0,"x_max":582,"ha":582,"o":"m 42 0 q 21 0 11 7 q 0 15 0 29 q 0 51 32 62 q 35 63 37 64 q 54 70 70 80 q 85 90 107 111 l 223 223 l 117 347 q 100 368 85 382 q 70 396 56 407 q 52 410 44 415 q 23 426 23 443 q 23 456 32 463 q 42 470 59 470 l 246 470 q 270 470 282 463 q 294 455 294 440 q 294 425 274 411 q 254 397 254 390 q 254 386 259 377 q 264 369 272 360 l 318 311 l 362 356 q 374 368 380 377 q 386 385 386 391 q 386 402 366 416 q 346 430 346 444 q 346 457 355 464 q 364 470 382 470 l 533 470 q 555 470 566 462 q 578 455 578 440 q 578 424 548 411 q 542 408 538 406 q 521 397 479 357 q 438 317 373 247 l 448 159 q 493 107 510 90 q 527 72 536 67 q 542 64 551 60 q 578 47 578 29 q 578 14 569 7 q 560 0 540 0 l 336 0 q 316 0 307 7 q 298 15 298 30 q 298 48 318 61 q 339 74 339 81 q 339 90 326 106 q 314 122 278 156 l 228 106 q 218 96 211 87 q 205 78 205 74 q 205 65 225 53 q 244 41 244 23 q 244 11 236 6 q 228 0 212 0 z"},")":{"x_min":0,"x_max":345,"ha":345,"o":"m 276 295 q 276 189 243 99 q 209 8 143 -66 q 114 -99 84 -119 q 54 -139 37 -139 q 33 -139 30 -137 q 27 -135 27 -132 q 27 -126 47 -99 q 68 -71 81 -44 q 115 29 132 121 q 150 213 150 317 q 150 406 133 484 q 116 562 82 627 q 71 648 51 677 q 31 705 31 713 q 31 719 33 721 q 36 723 41 723 q 60 723 88 705 q 116 687 144 656 q 208 585 242 493 q 276 400 276 295 z"},"&":{"x_min":0,"x_max":842,"ha":842,"o":"m 359 462 q 394 484 412 509 q 429 534 429 562 q 429 594 409 618 q 389 641 361 641 q 337 641 321 621 q 304 602 304 573 q 304 550 318 523 q 331 496 359 462 z m 416 145 l 262 304 q 234 291 222 272 q 209 254 209 228 q 209 179 243 141 q 277 103 322 103 q 341 103 365 114 q 388 124 416 145 z m 587 0 l 577 0 q 563 0 556 3 q 549 7 541 15 l 486 72 q 430 28 371 7 q 312 -14 248 -14 q 150 -14 89 37 q 29 87 29 169 q 29 233 71 284 q 114 335 202 378 q 176 415 163 448 q 150 480 150 512 q 150 548 164 582 q 179 616 207 646 q 243 684 289 703 q 336 722 393 722 q 474 722 527 675 q 581 627 581 558 q 581 506 543 462 q 504 417 428 380 l 550 257 q 617 330 654 401 q 692 473 692 525 q 692 550 678 574 q 665 598 665 600 q 665 615 701 642 q 737 669 764 669 q 775 669 781 657 q 787 646 787 623 q 787 515 744 407 q 701 300 614 192 l 647 160 q 691 117 715 100 q 739 83 765 73 q 784 65 789 58 q 795 50 795 36 q 795 20 783 10 q 771 0 752 0 z"},"_":{"x_min":0,"x_max":500,"ha":500,"o":"m 0 -136 l 500 -136 l 500 -236 l 0 -236 z"},"v":{"x_min":0,"x_max":567,"ha":567,"o":"m 212 23 l 89 321 q 75 354 66 370 q 57 386 49 391 q 43 395 34 399 q 6 415 6 436 q 6 453 18 461 q 30 470 54 470 l 218 470 q 242 470 253 462 q 265 453 265 436 q 265 419 244 406 q 222 393 222 379 q 222 375 224 365 q 227 356 230 347 l 306 147 l 389 362 q 392 372 393 375 q 394 379 394 382 q 394 393 371 408 q 348 422 348 440 q 348 455 358 462 q 367 470 385 470 l 521 470 q 541 470 551 462 q 561 455 561 440 q 561 420 538 407 q 536 406 535 405 q 534 404 532 403 q 503 385 493 359 l 358 23 q 351 6 346 3 q 342 0 331 0 l 237 0 q 228 0 223 4 q 218 7 212 23 z"},"O":{"x_min":0,"x_max":859,"ha":859,"o":"m 251 335 q 251 222 301 154 q 351 85 431 85 q 514 85 562 150 q 610 215 610 330 q 610 461 559 548 q 507 634 431 634 q 394 634 362 611 q 330 589 303 543 q 278 500 265 446 q 251 391 251 335 z m 39 320 q 39 382 56 439 q 73 496 106 547 q 159 628 246 676 q 333 723 429 723 q 507 723 579 693 q 651 663 705 609 q 762 552 791 481 q 820 410 820 327 q 820 171 716 79 q 612 -12 433 -12 q 247 -12 143 75 q 39 163 39 320 z"},"(":{"x_min":0,"x_max":345,"ha":345,"o":"m 69 290 q 69 396 102 486 q 136 577 202 651 q 230 683 260 703 q 290 723 308 723 q 312 723 315 721 q 318 720 318 717 q 318 711 297 683 q 277 655 264 628 q 230 554 212 462 q 194 370 194 268 q 194 181 211 102 q 229 24 263 -42 q 274 -63 294 -92 q 314 -120 314 -128 q 314 -134 311 -136 q 309 -139 303 -139 q 284 -139 257 -121 q 229 -104 201 -72 q 137 -2 103 91 q 69 184 69 290 z"},"C":{"x_min":0,"x_max":786,"ha":786,"o":"m 41 340 q 41 403 59 460 q 77 518 112 568 q 165 643 246 683 q 328 723 427 723 q 489 723 561 705 q 581 700 586 700 q 594 700 610 721 q 626 742 641 742 q 663 742 690 676 q 694 668 696 663 q 730 582 740 554 q 749 527 749 513 q 749 501 740 493 q 732 484 721 484 q 704 484 672 521 q 657 538 647 548 q 602 594 560 616 q 517 638 471 638 q 379 638 321 563 q 262 488 262 369 q 262 248 325 176 q 388 103 492 103 q 542 103 588 120 q 635 137 673 168 q 680 174 692 186 q 718 211 734 211 q 750 211 758 201 q 767 190 767 172 q 767 161 759 144 q 751 127 738 111 q 688 51 610 20 q 533 -12 438 -12 q 260 -12 150 85 q 41 183 41 340 z"},"W":{"x_min":0,"x_max":1004,"ha":1004,"o":"m 68 594 q 62 611 55 621 q 48 630 32 641 q 18 650 12 658 q 7 667 7 678 q 7 694 17 702 q 27 711 46 711 l 249 711 q 267 711 276 703 q 286 695 286 680 q 286 661 265 647 q 243 633 243 625 q 243 621 244 616 q 246 610 250 597 l 352 296 q 357 279 362 259 q 366 238 369 215 q 374 245 378 263 q 382 281 387 295 l 444 446 q 446 451 447 457 q 448 463 448 469 q 448 484 423 494 q 415 498 410 500 q 400 505 395 515 q 390 524 390 536 q 390 553 401 562 q 412 571 432 571 l 603 571 q 621 571 631 561 q 642 552 642 536 q 642 515 622 501 q 601 486 601 476 q 601 469 614 436 l 614 435 l 668 291 q 675 273 681 253 q 686 233 690 211 q 694 236 698 255 q 703 275 708 290 l 811 585 q 815 596 816 602 q 818 608 818 613 q 818 628 793 647 q 768 666 768 680 q 768 695 778 703 q 787 711 806 711 l 955 711 q 976 711 986 703 q 997 694 997 678 q 997 657 973 646 q 965 643 962 641 q 955 636 948 623 q 941 609 929 574 l 740 30 q 740 29 739 28 q 730 0 707 0 l 638 0 q 620 0 613 6 q 606 11 600 28 l 520 246 q 515 259 511 275 q 507 292 502 319 q 499 300 494 282 q 490 264 484 248 l 400 23 q 395 9 389 5 q 383 0 367 0 l 297 0 q 283 0 276 6 q 269 11 263 28 z"},"A":{"x_min":0,"x_max":822,"ha":822,"o":"m 306 328 q 304 322 303 317 q 302 313 302 310 q 302 296 315 291 q 329 286 368 286 q 418 286 447 293 q 475 300 475 312 q 475 317 474 322 q 473 328 470 335 l 408 506 q 405 514 402 518 q 398 523 395 523 q 391 523 386 518 q 382 514 379 506 z m 49 0 q 28 0 17 10 q 6 20 6 38 q 6 68 43 80 q 52 83 57 85 q 72 91 85 108 q 98 125 119 170 l 353 679 q 355 683 357 689 q 367 711 397 711 l 483 711 q 504 711 510 706 q 516 701 525 675 l 711 171 q 712 168 714 163 q 739 93 774 77 q 777 76 781 74 q 815 60 815 33 q 815 16 805 8 q 794 0 770 0 l 549 0 q 518 0 506 9 q 494 17 494 38 q 494 49 500 58 q 506 67 518 72 q 521 74 527 76 q 547 83 547 100 q 547 110 539 132 q 531 153 522 166 q 509 184 493 191 q 477 198 447 198 l 330 198 q 302 198 282 193 q 263 188 252 178 q 238 165 227 139 q 215 113 215 95 q 215 83 235 73 q 237 72 238 72 q 255 64 262 56 q 269 47 269 35 q 269 19 258 9 q 247 0 227 0 z"},"f":{"x_min":0,"x_max":328,"ha":328,"o":"m 232 130 q 232 110 238 98 q 243 85 256 77 q 260 74 268 70 q 294 54 294 34 q 294 18 283 9 q 273 0 255 0 l 66 0 q 47 0 36 10 q 25 19 25 36 q 25 57 53 73 q 62 78 66 81 q 80 90 85 103 q 91 115 91 136 l 91 386 l 47 386 q 30 386 23 401 q 16 417 16 452 q 16 461 21 466 q 26 470 36 470 l 88 470 q 84 479 56 519 q 28 559 28 596 q 28 649 74 686 q 121 723 190 723 q 254 723 294 696 q 335 668 335 625 q 335 592 313 572 q 292 551 258 551 q 230 551 208 563 q 186 576 186 590 q 186 594 196 601 q 205 608 205 616 q 205 626 196 635 q 187 643 174 643 q 158 643 146 632 q 135 620 135 605 q 135 587 166 560 q 169 556 172 554 q 201 528 215 509 q 229 489 235 470 l 306 470 q 317 470 321 469 q 325 467 325 464 q 325 433 318 409 q 310 386 300 386 l 232 386 z"},"Q":{"x_min":0,"x_max":866,"ha":866,"o":"m 580 171 q 596 206 604 243 q 612 280 612 319 q 612 384 598 444 q 583 503 557 550 q 530 596 499 618 q 469 640 431 640 q 356 640 304 554 q 252 468 252 340 q 252 225 302 152 q 352 80 429 80 q 440 80 453 82 q 465 83 480 87 q 461 121 439 140 q 417 158 394 158 q 381 158 365 150 q 348 142 343 142 q 336 142 333 147 q 329 152 329 162 q 329 195 360 220 q 391 245 436 245 q 474 245 509 227 q 545 208 580 171 z m 531 -3 q 489 -7 462 -9 q 436 -11 419 -11 q 243 -11 141 78 q 40 168 40 324 q 40 405 71 479 q 102 553 159 610 q 212 663 284 693 q 356 723 431 723 q 509 723 581 694 q 653 664 706 610 q 763 553 792 481 q 821 410 821 326 q 821 233 785 165 q 749 97 673 48 q 690 30 708 22 q 726 13 743 13 q 758 13 777 24 q 797 34 803 34 q 810 34 815 29 q 821 24 821 18 q 821 11 814 -4 q 807 -19 794 -36 l 731 -122 q 724 -131 718 -135 q 712 -139 705 -139 q 666 -139 617 -102 q 569 -65 531 -3 z"},"w":{"x_min":0,"x_max":878,"ha":878,"o":"m 209 16 l 94 310 q 83 339 67 365 q 52 390 45 395 q 41 398 32 403 q 5 418 5 439 q 5 455 16 462 q 27 470 49 470 l 226 470 q 249 470 261 461 q 273 452 273 435 q 273 418 248 404 q 222 389 222 375 q 222 372 223 368 q 224 363 226 358 l 282 209 q 289 191 293 176 q 298 161 300 148 q 302 163 307 178 q 311 194 318 210 l 373 345 q 376 353 378 361 q 380 370 380 377 q 380 392 354 410 q 329 428 329 442 q 329 457 339 463 q 349 470 369 470 l 535 470 q 567 470 581 462 q 595 454 595 435 q 595 425 589 417 q 583 410 573 406 q 569 404 562 402 q 540 393 540 380 q 540 377 541 373 q 542 370 544 362 l 593 214 q 596 204 601 186 q 605 169 610 148 q 613 165 618 181 q 623 198 631 216 l 692 356 q 695 363 697 372 q 699 380 699 384 q 699 394 675 411 q 650 429 650 444 q 650 458 660 464 q 670 470 691 470 l 826 470 q 847 470 860 462 q 873 453 873 440 q 873 421 847 408 q 837 403 834 400 q 827 393 818 380 q 810 367 803 352 l 651 16 q 651 16 650 14 q 644 0 630 0 l 537 0 q 525 0 521 4 q 517 8 512 22 l 455 198 q 450 214 447 229 q 443 244 441 258 q 439 245 435 231 q 430 216 423 199 l 351 21 l 350 19 q 342 0 322 0 l 236 0 q 222 0 217 3 q 212 7 209 16 z"},"-":{"x_min":0,"x_max":476,"ha":476,"o":"m 162 168 q 139 168 112 156 q 84 143 79 143 q 70 143 64 149 q 59 155 59 165 q 59 170 63 183 q 65 189 66 193 l 89 271 q 94 290 103 297 q 112 303 148 303 l 314 303 q 337 303 364 316 q 392 328 397 328 q 406 328 411 322 q 416 316 416 306 q 416 300 412 284 q 411 280 410 278 l 387 200 q 381 181 372 174 q 363 168 328 168 z"},"E":{"x_min":0,"x_max":767,"ha":767,"o":"m 89 0 q 58 0 43 10 q 29 21 29 42 q 29 66 63 79 q 73 83 77 85 q 89 91 94 101 q 99 110 99 129 l 99 581 q 99 600 94 610 q 89 620 77 626 q 73 628 63 632 q 29 645 29 669 q 29 691 43 701 q 58 711 89 711 l 458 711 q 480 711 500 724 q 520 738 528 738 q 538 738 547 732 q 556 726 564 714 l 650 587 q 656 577 660 568 q 663 559 663 552 q 663 541 656 534 q 649 527 638 527 q 623 527 586 554 q 562 573 547 582 q 514 603 477 612 q 441 621 363 621 q 311 621 295 608 q 279 596 279 560 l 279 506 q 279 474 289 463 q 299 453 327 453 q 354 453 367 458 q 379 463 390 481 q 392 483 394 487 q 408 509 423 509 q 432 509 440 504 q 448 499 454 490 l 543 355 q 547 349 550 341 q 552 333 552 326 q 552 312 543 303 q 534 294 519 294 q 500 294 462 324 q 446 336 437 343 q 420 354 400 360 q 379 365 345 365 q 302 365 288 352 q 275 339 275 276 l 275 172 q 275 130 290 116 q 304 101 350 101 l 490 101 q 530 101 563 111 q 597 122 633 145 q 644 152 663 166 q 703 196 720 196 q 732 196 740 188 q 747 179 747 166 q 747 158 744 150 q 741 142 732 128 l 651 -4 q 637 -27 629 -33 q 621 -40 610 -40 q 601 -40 579 -20 q 556 0 531 0 z"},"s":{"x_min":0,"x_max":529,"ha":529,"o":"m 31 104 q 21 124 15 137 q 10 150 10 156 q 10 164 15 169 q 20 174 28 174 q 38 174 69 148 q 94 128 111 116 q 138 96 177 84 q 216 72 255 72 q 295 72 318 84 q 342 97 342 117 q 342 149 237 185 q 225 188 218 191 q 102 231 64 265 q 26 299 26 353 q 26 408 71 445 q 116 482 186 482 q 219 482 260 473 q 300 464 308 464 q 321 464 339 480 q 358 496 366 496 q 372 496 377 492 q 382 488 389 476 l 450 375 q 451 373 453 371 q 463 353 463 346 q 463 336 458 331 q 453 325 444 325 q 436 325 413 342 q 401 350 394 355 q 343 390 309 402 q 275 415 240 415 q 212 415 195 405 q 178 395 178 378 q 178 346 296 313 q 326 305 343 300 q 423 276 461 238 q 500 200 500 145 q 500 74 450 31 q 401 -11 318 -11 q 281 -11 237 -3 q 193 5 187 5 q 163 5 148 -18 l 148 -18 q 147 -20 146 -21 q 130 -44 121 -44 q 107 -44 83 2 l 81 6 z"},">":{"x_min":0,"x_max":833,"ha":833,"o":"m 129 583 l 704 347 l 704 250 l 129 13 l 129 120 l 566 298 l 129 476 z"},"l":{"x_min":0,"x_max":312,"ha":312,"o":"m 89 532 q 89 551 85 558 q 81 565 66 571 q 65 571 63 572 q 32 584 32 602 q 32 611 41 621 q 50 630 72 643 l 187 714 q 193 718 200 721 q 207 723 213 723 q 224 723 228 717 q 232 710 232 694 l 232 124 q 232 105 237 94 q 243 83 255 74 q 259 71 268 66 q 292 51 292 33 q 292 18 282 9 q 271 0 254 0 l 67 0 q 50 0 39 9 q 29 18 29 33 q 29 51 53 66 q 62 71 66 74 q 79 83 84 94 q 89 105 89 124 z"},"8":{"x_min":0,"x_max":623,"ha":623,"o":"m 168 372 q 114 395 86 432 q 59 469 59 519 q 59 598 129 648 q 198 698 311 698 q 424 698 494 648 q 564 598 564 519 q 564 469 536 432 q 508 395 454 372 q 520 345 552 300 q 585 256 585 194 q 585 100 510 42 q 434 -16 311 -16 q 188 -16 113 42 q 38 100 38 194 q 38 256 70 301 q 103 345 168 372 z m 311 305 q 276 305 248 269 q 219 232 219 186 q 219 137 244 107 q 270 78 311 78 q 352 78 377 108 q 403 137 403 186 q 403 232 375 269 q 346 305 311 305 z m 311 419 q 343 419 368 451 q 394 483 394 523 q 394 566 371 592 q 349 617 311 617 q 273 617 251 592 q 228 566 228 523 q 228 483 254 451 q 279 419 311 419 z"},"\\":{"x_min":0,"x_max":544,"ha":544,"o":"m 443 -75 l 30 699 q 27 704 26 709 q 24 714 24 716 q 24 719 27 721 q 30 723 35 723 l 88 723 q 98 723 103 721 q 107 718 113 707 l 548 -64 q 549 -66 552 -71 q 556 -78 556 -82 q 556 -88 551 -90 q 545 -93 533 -93 l 470 -93 q 452 -93 447 -83 q 445 -78 443 -75 z"},"e":{"x_min":0,"x_max":529,"ha":529,"o":"m 190 239 l 323 285 q 335 289 341 295 q 347 301 347 309 q 347 349 317 382 q 287 416 249 416 q 216 416 195 390 q 174 363 174 321 q 174 307 177 288 q 181 269 190 239 z m 207 188 q 224 133 259 105 q 293 76 344 76 q 368 76 391 83 q 415 89 435 102 q 442 106 455 115 q 491 139 503 139 q 513 139 520 133 q 526 126 526 116 q 526 105 517 91 q 509 78 493 63 q 454 27 401 8 q 348 -12 292 -12 q 175 -12 100 59 q 25 129 25 238 q 25 290 44 333 q 63 377 100 412 q 136 445 181 464 q 227 482 275 482 q 334 482 381 460 q 427 439 462 395 q 482 370 495 342 q 508 313 508 298 q 508 292 503 288 q 499 284 479 277 z"},"b":{"x_min":0,"x_max":581,"ha":581,"o":"m 198 251 q 198 170 223 129 q 247 88 295 88 q 347 88 385 141 q 422 195 422 273 q 422 334 390 372 q 359 409 309 409 q 254 409 226 369 q 198 330 198 251 z m 63 550 q 63 567 59 575 q 55 583 44 588 q 42 589 37 591 q 9 602 9 619 q 9 628 21 639 q 33 650 57 662 l 160 715 q 168 719 175 721 q 181 723 186 723 q 195 723 199 717 q 203 710 203 694 l 203 435 q 228 458 257 470 q 285 481 321 481 q 363 481 404 463 q 445 446 478 414 q 517 376 536 331 q 555 285 555 229 q 555 127 496 59 q 437 -9 351 -9 q 313 -9 277 5 q 241 18 204 46 l 123 -1 q 112 -8 104 -11 q 95 -14 88 -14 q 75 -14 69 -7 q 63 0 63 17 z"},"%":{"x_min":0,"x_max":759,"ha":759,"o":"m 530 181 q 530 88 541 60 q 552 32 581 32 q 606 32 616 60 q 626 87 626 174 q 626 269 616 298 q 605 327 578 327 q 551 327 540 302 q 530 276 530 181 z m 426 171 q 426 260 469 315 q 511 370 579 370 q 646 370 689 317 q 732 264 732 179 q 732 92 689 38 q 646 -16 579 -16 q 512 -16 469 36 q 426 89 426 171 z m 131 509 q 131 417 142 388 q 153 360 182 360 q 207 360 217 388 q 227 416 227 502 q 227 599 217 626 q 207 654 180 654 q 152 654 142 628 q 131 602 131 509 z m 27 499 q 27 588 70 643 q 112 698 180 698 q 247 698 290 645 q 333 591 333 506 q 333 419 291 365 q 249 312 181 312 q 114 312 71 365 q 27 417 27 499 z m 121 -28 l 522 682 q 528 693 532 696 q 537 698 547 698 l 600 698 q 604 698 608 696 q 611 694 611 691 q 611 689 609 684 q 607 679 604 674 l 226 -39 q 225 -41 223 -44 q 216 -57 199 -57 l 136 -57 q 124 -57 118 -54 q 113 -52 113 -46 q 113 -43 115 -39 q 117 -35 121 -28 z"},"m":{"x_min":0,"x_max":913,"ha":913,"o":"m 88 295 q 88 316 83 324 q 79 331 64 337 q 62 338 56 340 q 27 352 27 370 q 27 382 38 392 q 48 403 75 417 l 185 477 q 192 481 199 484 q 206 486 211 486 q 220 486 224 479 q 228 473 229 453 l 232 400 q 270 441 307 461 q 344 481 384 481 q 423 481 453 462 q 483 442 508 402 q 542 444 574 462 q 606 481 642 481 q 701 481 739 443 q 777 405 798 324 l 827 213 q 847 136 857 112 q 867 87 878 77 q 883 73 893 66 q 917 50 917 33 q 917 17 903 8 q 889 0 860 0 l 703 0 q 671 0 658 8 q 645 15 645 33 q 645 42 650 50 q 654 57 667 66 q 671 69 679 73 q 702 87 702 101 q 702 120 693 163 q 684 206 668 260 q 648 330 631 353 q 614 376 586 376 q 555 376 536 351 q 517 326 517 284 l 517 123 q 517 104 522 93 q 528 82 541 73 q 545 70 554 65 q 578 52 578 33 q 578 18 568 9 q 557 0 540 0 l 359 0 q 342 0 332 9 q 322 18 322 33 q 322 52 345 65 q 354 70 358 73 q 371 82 376 93 q 381 104 381 123 l 381 281 q 381 328 364 353 q 348 378 317 378 q 284 378 257 349 q 230 320 230 284 l 230 123 q 230 104 235 93 q 241 82 253 73 q 258 70 267 65 q 290 52 290 33 q 290 18 280 9 q 269 0 252 0 l 66 0 q 49 0 39 9 q 29 18 29 33 q 29 52 53 65 q 62 70 66 73 q 78 82 83 93 q 88 104 88 123 z"},"#":{"x_min":0,"x_max":769,"ha":769,"o":"m 344 416 l 300 293 l 429 293 l 472 416 z m 347 715 l 452 715 l 380 512 l 504 512 l 577 715 l 681 715 l 609 512 l 747 512 l 711 415 l 575 415 l 532 294 l 675 294 l 640 198 l 498 198 l 426 -5 l 321 -5 l 393 198 l 269 198 l 196 -5 l 91 -5 l 163 198 l 22 198 l 58 294 l 198 294 l 241 415 l 93 415 l 129 512 l 275 512 z"},",":{"x_min":0,"x_max":311,"ha":311,"o":"m 77 129 q 77 151 84 159 q 92 167 111 167 l 200 167 q 219 167 227 159 q 234 151 234 129 l 234 3 q 234 -67 199 -107 q 165 -148 106 -148 q 92 -148 84 -140 q 76 -133 76 -120 q 76 -106 99 -94 q 106 -89 111 -86 q 127 -75 135 -63 q 142 -51 142 -35 q 142 -17 134 -9 q 125 -1 96 2 q 86 3 82 12 q 77 21 77 38 z"},"n":{"x_min":0,"x_max":602,"ha":602,"o":"m 88 295 q 88 316 83 324 q 79 331 64 337 q 62 338 56 340 q 27 352 27 370 q 27 381 40 393 q 52 405 78 419 l 185 477 q 192 481 199 484 q 206 486 211 486 q 220 486 224 479 q 228 473 229 453 l 232 395 q 266 443 294 462 q 322 481 359 481 q 411 481 447 441 q 484 401 503 324 l 531 213 q 532 208 535 196 q 561 95 579 77 q 583 72 594 65 q 616 50 616 34 q 616 17 604 8 q 591 0 563 0 l 410 0 q 379 0 366 8 q 354 15 354 33 q 354 43 358 50 q 363 57 375 66 q 379 69 387 74 q 410 87 410 101 q 410 119 401 162 q 392 205 377 260 q 357 330 340 353 q 323 376 296 376 q 266 376 248 351 q 230 327 230 284 l 230 123 q 230 104 235 93 q 241 82 253 73 q 258 70 267 65 q 290 52 290 33 q 290 18 280 9 q 269 0 252 0 l 66 0 q 49 0 39 9 q 29 18 29 33 q 29 52 53 65 q 62 70 66 73 q 78 82 83 93 q 88 104 88 123 z"},"h":{"x_min":0,"x_max":603,"ha":603,"o":"m 230 123 q 230 104 235 93 q 241 82 253 73 q 258 70 267 65 q 290 52 290 33 q 290 18 280 9 q 269 0 252 0 l 66 0 q 49 0 39 9 q 29 18 29 33 q 29 52 53 65 q 62 70 66 73 q 78 82 83 93 q 88 104 88 123 l 88 532 q 88 552 84 559 q 80 565 66 571 q 65 571 62 572 q 31 584 31 602 q 31 611 40 620 q 49 629 71 643 l 187 714 q 194 719 200 721 q 206 723 212 723 q 223 723 227 717 q 232 710 232 694 l 232 416 q 262 449 293 465 q 323 481 356 481 q 407 481 442 442 q 478 403 497 324 l 525 213 q 544 134 553 110 q 563 86 574 76 q 579 72 590 65 q 612 51 612 35 q 612 18 597 9 q 583 0 556 0 l 406 0 q 376 0 364 8 q 352 15 352 33 q 352 44 357 52 q 361 59 372 66 q 375 68 381 72 q 406 86 406 101 q 406 119 397 162 q 389 206 374 260 q 355 329 339 352 q 322 376 295 376 q 265 376 248 351 q 230 327 230 284 z"},"z":{"x_min":0,"x_max":584,"ha":584,"o":"m 53 0 q 34 0 25 6 q 17 12 17 26 q 17 51 144 178 q 270 304 353 396 q 350 396 344 396 q 316 398 305 398 q 252 398 218 390 q 184 383 156 366 q 141 356 111 330 q 82 303 65 303 q 55 303 50 309 q 44 314 44 324 q 44 332 53 349 q 55 353 56 355 l 118 471 q 119 473 121 477 q 134 500 148 500 q 156 500 174 485 q 192 470 216 470 l 524 470 q 543 470 551 465 q 558 459 558 446 q 558 424 434 294 q 315 170 236 81 q 243 81 251 80 q 260 80 276 80 q 331 80 372 90 q 413 100 449 122 q 469 134 497 157 q 524 180 535 180 q 544 180 549 175 q 554 170 554 162 q 554 156 552 150 q 550 143 546 135 l 482 -1 q 476 -16 466 -24 q 457 -32 447 -32 q 435 -32 419 -17 q 413 -11 409 -8 q 402 -4 390 -2 q 378 0 359 0 z"},"B":{"x_min":0,"x_max":729,"ha":729,"o":"m 278 135 q 278 104 289 94 q 299 85 334 85 q 413 85 456 124 q 499 162 499 232 q 499 304 457 346 q 415 388 344 388 q 305 388 292 378 q 278 367 278 339 z m 278 494 q 278 470 285 463 q 292 455 316 455 q 361 455 386 478 q 412 500 412 539 q 412 583 390 609 q 368 635 331 635 q 304 635 292 625 q 279 616 278 596 z m 89 0 q 58 0 43 10 q 29 21 29 42 q 29 66 63 79 q 73 83 77 85 q 89 91 94 101 q 99 111 99 130 l 99 581 q 99 600 94 610 q 89 620 77 626 q 73 628 63 632 q 29 645 29 669 q 29 691 43 701 q 58 711 89 711 l 319 711 q 449 711 520 665 q 592 618 592 536 q 592 495 569 467 q 547 438 500 420 q 604 398 659 341 q 715 284 715 198 q 715 156 696 118 q 677 81 642 54 q 604 25 556 12 q 507 0 419 0 z"},"K":{"x_min":0,"x_max":741,"ha":741,"o":"m 277 130 q 277 111 282 101 q 288 91 300 85 q 304 83 314 79 q 347 66 347 42 q 347 21 333 10 q 318 0 287 0 l 89 0 q 58 0 43 10 q 29 21 29 42 q 29 66 63 79 q 73 83 77 85 q 89 91 94 101 q 99 111 99 130 l 99 581 q 99 600 94 610 q 89 620 77 626 q 73 628 63 632 q 29 645 29 669 q 29 691 43 701 q 58 711 89 711 l 287 711 q 318 711 333 701 q 347 691 347 669 q 347 645 313 632 q 304 628 300 626 q 288 620 282 610 q 277 600 277 581 l 277 458 q 359 526 405 570 q 450 614 450 625 q 450 632 429 646 q 408 659 408 677 q 408 694 420 703 q 432 711 457 711 l 617 711 q 642 711 654 702 q 666 693 666 676 q 666 661 658 653 q 650 646 626 641 q 603 636 584 622 q 564 608 527 562 l 501 531 l 670 135 q 682 106 691 94 q 700 82 713 74 q 716 72 721 69 q 749 54 749 34 q 749 17 738 9 q 727 0 704 0 l 488 0 q 467 0 456 9 q 444 18 444 34 q 444 46 450 54 q 456 62 474 71 q 476 72 479 73 q 500 84 500 100 q 500 115 458 211 l 453 222 l 370 412 q 350 396 327 377 q 305 358 277 333 z"},"R":{"x_min":0,"x_max":802,"ha":802,"o":"m 277 369 q 277 316 295 299 q 312 282 365 282 q 453 282 499 325 q 546 368 546 448 q 546 530 499 576 q 452 622 366 622 q 315 622 296 609 q 277 596 277 562 z m 277 130 q 277 111 282 101 q 288 91 300 85 q 304 83 314 79 q 347 66 347 42 q 347 21 333 10 q 318 0 287 0 l 89 0 q 58 0 43 10 q 29 21 29 42 q 29 66 63 79 q 73 83 77 85 q 89 91 94 101 q 99 111 99 130 l 99 581 q 99 600 94 610 q 89 620 77 626 q 73 628 63 632 q 29 645 29 669 q 29 691 43 701 q 58 711 89 711 l 336 711 q 438 711 506 696 q 573 681 626 648 q 691 608 728 550 q 764 492 764 429 q 764 358 721 309 q 677 261 592 237 l 685 128 l 687 125 q 724 83 754 73 q 774 66 782 58 q 789 50 789 37 q 789 20 775 10 q 762 0 737 0 l 500 0 q 480 0 469 9 q 458 19 458 35 q 458 62 483 74 q 509 86 509 87 q 509 95 488 120 q 466 145 413 198 q 406 197 398 197 q 391 197 377 197 q 355 197 331 199 q 308 201 306 201 q 292 201 284 193 q 277 185 277 170 z"},"T":{"x_min":0,"x_max":770,"ha":770,"o":"m 282 0 q 251 0 237 10 q 222 21 222 42 q 222 66 256 79 q 266 83 270 85 q 282 91 287 101 q 292 111 292 130 l 292 571 q 292 598 283 605 q 274 613 241 613 q 199 613 170 602 q 140 590 99 555 q 87 545 69 527 q 35 494 20 494 q 9 494 3 501 q -4 509 -4 521 q -4 542 76 685 l 80 692 q 95 719 108 732 q 120 744 132 744 q 144 744 161 728 q 179 711 205 711 l 581 711 q 609 711 631 724 q 653 738 659 738 q 680 738 705 689 q 709 680 712 674 q 748 605 763 569 q 778 533 778 519 q 778 508 770 501 q 762 493 750 493 q 735 493 710 518 q 702 527 697 532 q 645 582 610 599 q 575 615 532 615 q 495 615 483 606 q 470 598 470 572 l 470 130 q 470 111 475 101 q 480 91 493 85 q 498 83 507 79 q 540 66 540 42 q 540 21 526 10 q 511 0 480 0 z"},"P":{"x_min":0,"x_max":732,"ha":732,"o":"m 277 342 q 277 312 291 302 q 306 292 345 292 q 426 292 473 333 q 519 374 519 446 q 519 520 469 569 q 418 618 343 618 q 310 618 294 606 q 278 594 277 569 z m 277 129 q 277 111 282 101 q 288 91 300 85 q 304 83 314 79 q 347 66 347 42 q 347 21 333 10 q 318 0 287 0 l 89 0 q 58 0 43 10 q 29 21 29 42 q 29 66 63 79 q 73 83 77 85 q 89 91 94 101 q 99 110 99 129 l 99 581 q 99 600 94 610 q 89 620 77 626 q 73 628 63 632 q 29 645 29 669 q 29 691 43 701 q 58 711 89 711 l 262 711 q 366 711 430 699 q 494 688 547 661 q 630 619 674 555 q 718 491 718 411 q 718 307 640 255 q 562 204 404 204 q 389 204 359 206 q 330 207 315 207 q 294 207 285 201 q 277 194 277 178 z"},"|":{"x_min":0,"x_max":500,"ha":500,"o":"m 200 764 l 301 764 l 301 -236 l 200 -236 z"},"t":{"x_min":0,"x_max":382,"ha":382,"o":"m 89 387 l 38 387 q 21 387 13 393 q 5 399 5 412 q 5 426 22 446 q 26 450 28 452 l 162 610 q 167 615 174 625 q 196 652 206 652 q 220 652 225 641 q 231 630 232 598 l 232 470 l 372 470 q 383 470 386 467 q 389 463 389 454 q 389 423 381 406 q 372 390 356 390 l 232 390 l 232 149 q 232 109 242 96 q 251 82 276 82 q 292 82 323 101 q 355 120 368 120 q 381 120 389 112 q 397 104 397 91 q 397 53 345 20 q 293 -12 222 -12 q 165 -12 122 18 q 78 48 78 84 q 78 90 83 117 q 89 144 89 166 z"},"M":{"x_min":0,"x_max":1000,"ha":1000,"o":"m 81 118 l 201 587 q 201 588 202 589 q 207 609 207 618 q 207 628 180 644 q 153 660 153 681 q 153 695 165 703 q 177 711 199 711 l 387 711 q 406 711 416 702 q 426 693 426 676 q 426 659 402 641 q 379 623 379 608 q 379 602 381 594 q 382 587 386 579 l 483 356 q 489 343 495 325 q 500 306 508 278 q 515 305 522 325 q 529 345 537 361 l 639 577 q 646 591 648 600 q 651 609 651 616 q 651 626 625 642 q 600 657 600 676 q 600 693 612 702 q 624 711 647 711 l 822 711 q 846 711 857 702 q 869 694 869 677 q 869 668 864 659 q 859 649 852 645 q 850 644 844 641 q 814 624 814 603 q 814 599 816 587 q 817 583 818 580 l 920 129 q 924 111 933 99 q 942 87 958 79 q 960 78 967 75 q 994 62 994 38 q 994 22 981 11 q 967 0 948 0 l 737 0 q 718 0 708 10 q 697 20 697 36 q 697 58 721 75 q 745 92 745 100 q 745 105 744 112 q 743 120 741 129 l 691 360 q 688 373 687 391 q 685 409 684 430 q 681 416 676 402 q 670 387 662 368 l 512 44 l 512 43 q 493 4 476 4 q 464 4 456 13 q 448 22 436 49 l 297 369 q 290 385 285 401 q 280 417 278 433 q 277 416 274 399 q 271 382 268 368 l 206 126 q 203 115 202 108 q 200 100 200 97 q 200 86 223 71 q 245 55 245 36 q 245 20 234 10 q 222 0 202 0 l 49 0 q 32 0 20 10 q 8 20 8 35 q 8 52 16 62 q 24 72 46 80 q 47 81 50 82 q 75 92 81 118 z"},"g":{"x_min":0,"x_max":584,"ha":584,"o":"m 185 -4 q 171 -18 165 -30 q 158 -42 158 -54 q 158 -78 196 -90 q 234 -101 316 -101 q 383 -101 412 -92 q 441 -83 441 -61 q 441 -31 302 -17 q 273 -14 257 -12 z m 107 18 q 70 26 52 41 q 33 56 33 76 q 33 102 58 129 q 82 157 130 184 q 92 210 76 239 q 59 268 59 306 q 59 383 128 430 q 197 477 319 481 q 343 545 379 578 q 415 610 462 610 q 498 610 519 591 q 540 572 540 540 q 540 520 526 506 q 511 492 490 492 q 479 492 458 498 q 437 504 428 504 q 413 504 402 497 q 390 489 382 474 q 458 452 499 411 q 540 370 540 316 q 540 245 471 198 q 402 151 294 151 q 262 151 237 154 q 211 156 190 162 q 181 155 177 150 q 173 144 173 138 q 173 125 189 119 q 206 113 256 108 l 374 97 q 497 86 544 57 q 591 28 591 -32 q 591 -101 521 -136 q 452 -171 314 -171 q 180 -171 105 -144 q 31 -116 31 -67 q 31 -46 50 -24 q 70 -2 107 18 z m 300 426 q 260 426 236 395 q 212 364 212 313 q 212 266 235 237 q 259 208 297 208 q 339 208 361 235 q 382 262 382 315 q 382 367 360 396 q 338 426 300 426 z"},"j":{"x_min":0,"x_max":312,"ha":312,"o":"m 118 542 q 92 542 77 553 q 62 565 62 585 q 62 619 101 647 q 140 676 189 676 q 212 676 226 664 q 240 652 240 632 q 240 597 203 570 q 166 542 118 542 z m 236 -17 q 236 -94 203 -133 q 171 -172 107 -172 q 58 -172 26 -146 q -6 -120 -6 -80 q -6 -65 -2 -56 q 1 -47 8 -47 q 10 -47 15 -52 q 33 -70 54 -70 q 74 -70 84 -57 q 94 -45 94 -19 l 94 326 q 94 344 90 350 q 86 357 73 362 l 71 363 q 40 374 40 390 q 40 399 49 406 q 57 414 79 424 l 192 474 q 195 475 200 478 q 211 483 218 483 q 228 483 232 476 q 236 468 236 450 z"},"i":{"x_min":0,"x_max":312,"ha":312,"o":"m 112 541 q 86 541 71 552 q 56 564 56 584 q 56 618 95 646 q 134 675 183 675 q 206 675 220 663 q 234 651 234 631 q 234 596 197 569 q 160 541 112 541 z m 88 326 q 88 344 84 350 q 80 356 67 361 q 65 362 61 363 q 34 374 34 389 q 34 398 43 406 q 52 415 74 424 l 186 473 q 189 474 194 477 q 206 482 212 482 q 222 482 226 475 q 230 467 230 449 l 230 124 q 230 105 235 94 q 241 83 253 74 q 257 71 266 66 q 290 51 290 33 q 290 18 280 9 q 269 0 252 0 l 66 0 q 49 0 39 9 q 29 18 29 33 q 29 51 53 66 q 62 71 66 74 q 78 83 83 94 q 88 105 88 124 z"},"y":{"x_min":0,"x_max":545,"ha":545,"o":"m 224 21 l 82 345 l 81 347 q 64 385 47 396 q 42 399 33 403 q 4 418 4 440 q 4 455 17 463 q 29 470 54 470 l 227 470 q 248 470 258 463 q 269 455 269 441 q 269 425 245 409 q 220 394 220 384 q 220 380 222 373 q 224 366 228 358 l 306 183 l 380 356 q 380 357 381 359 q 387 372 387 377 q 387 393 363 410 q 339 426 339 440 q 339 454 352 462 q 365 470 387 470 l 515 470 q 526 470 536 460 q 545 451 545 438 q 545 421 526 412 q 520 408 516 406 q 504 399 497 391 q 490 383 482 366 l 327 25 q 285 -67 238 -113 q 192 -158 140 -158 q 99 -158 79 -147 q 60 -137 53 -108 l 29 -6 q 28 -4 28 -2 q 28 0 28 4 q 28 18 35 25 q 43 33 56 33 q 69 33 84 9 q 88 3 91 -1 q 105 -23 118 -31 q 131 -40 149 -40 q 174 -40 194 -24 q 213 -8 224 21 z"},"@":{"x_min":0,"x_max":986,"ha":986,"o":"m 574 156 q 544 107 509 83 q 473 60 430 60 q 361 60 322 104 q 282 149 282 227 q 282 283 307 335 q 331 388 377 431 q 411 462 449 479 q 488 495 528 495 q 575 495 601 473 q 628 451 636 406 l 660 486 l 753 486 l 668 184 l 667 181 q 660 152 660 138 q 660 115 670 102 q 680 89 697 89 q 713 89 738 101 q 764 113 786 132 q 836 175 863 238 q 890 301 890 377 q 890 511 798 595 q 706 678 559 678 q 492 678 431 660 q 371 641 320 605 q 235 546 190 454 q 144 363 144 251 q 144 87 247 -9 q 350 -105 523 -105 q 604 -105 679 -80 q 754 -56 829 -4 l 848 -29 q 774 -84 693 -112 q 611 -139 523 -139 q 432 -139 353 -117 q 275 -94 218 -52 q 144 3 104 84 q 65 165 65 261 q 65 337 90 407 q 116 477 165 536 q 236 621 334 667 q 433 712 547 712 q 717 712 820 620 q 922 527 922 374 q 922 295 893 228 q 864 160 810 111 q 781 85 748 72 q 715 58 681 58 q 633 58 605 83 q 578 109 574 156 z m 546 463 q 516 463 491 441 q 466 419 442 371 q 414 315 399 266 q 385 217 385 177 q 385 138 402 115 q 418 93 447 93 q 478 93 508 123 q 537 153 564 212 q 583 257 595 302 q 606 348 606 382 q 606 421 590 442 q 575 463 546 463 z"},".":{"x_min":0,"x_max":311,"ha":311,"o":"m 111 0 q 92 0 84 8 q 77 16 77 38 l 77 129 q 77 151 84 159 q 92 167 111 167 l 200 167 q 219 167 227 159 q 234 151 234 129 l 234 38 q 234 16 227 8 q 219 0 200 0 z"},"p":{"x_min":0,"x_max":603,"ha":603,"o":"m 343 409 q 286 409 247 360 q 209 310 209 235 q 209 172 230 138 q 252 104 291 104 q 316 104 340 116 q 364 127 385 150 q 412 179 427 214 q 443 250 443 284 q 443 340 415 375 q 388 409 343 409 z m 217 -41 q 217 -60 222 -71 q 228 -82 240 -91 q 245 -94 253 -99 q 277 -113 277 -131 q 277 -146 267 -155 q 256 -164 239 -164 l 53 -164 q 36 -164 26 -155 q 16 -146 16 -131 q 16 -113 40 -99 q 48 -94 53 -91 q 65 -83 70 -71 q 75 -60 75 -41 l 75 305 q 75 325 71 332 q 66 338 51 344 q 49 345 44 347 q 14 358 14 375 q 14 385 26 396 q 39 407 65 420 l 172 475 q 181 479 187 481 q 192 483 198 483 q 208 483 212 476 q 216 470 216 453 l 216 397 q 246 438 281 459 q 317 480 359 480 q 445 480 507 406 q 569 331 569 223 q 569 126 512 59 q 456 -9 377 -9 q 333 -9 293 12 q 253 33 217 75 z"},"X":{"x_min":0,"x_max":785,"ha":785,"o":"m 320 362 q 282 414 224 496 q 142 611 122 624 q 115 628 96 634 q 53 646 53 676 q 53 693 65 702 q 77 711 101 711 l 359 711 q 384 711 396 702 q 409 692 409 674 q 409 665 405 659 q 401 653 390 646 q 385 644 377 639 q 351 626 351 616 q 351 606 369 581 q 387 555 445 483 q 456 494 475 514 q 560 602 560 619 q 560 628 537 644 q 513 660 513 675 q 513 689 526 700 q 539 711 556 711 l 738 711 q 757 711 768 702 q 779 692 779 676 q 779 652 745 639 q 725 631 715 624 q 696 610 611 514 q 546 441 504 395 q 596 270 684 139 q 703 111 706 107 q 719 91 749 76 q 780 61 780 37 q 780 19 769 10 q 757 0 736 0 l 504 0 q 472 0 458 9 q 444 18 444 38 q 444 51 449 60 q 455 68 467 75 q 472 78 482 83 q 501 91 501 99 q 501 113 471 157 q 441 202 386 269 q 306 185 276 147 q 245 109 245 96 q 245 85 267 71 q 289 57 289 39 q 289 21 277 11 q 265 0 245 0 l 64 0 q 36 0 21 9 q 7 18 7 36 q 7 59 38 71 q 68 83 82 95 q 104 113 186 209 q 269 305 320 362 z"},"*":{"x_min":0,"x_max":405,"ha":405,"o":"m 37 570 l 64 655 l 164 616 l 158 723 l 247 723 l 241 616 l 341 655 l 368 570 l 265 544 l 333 460 l 260 407 l 203 498 l 145 407 l 72 460 l 141 543 z"},"Y":{"x_min":0,"x_max":789,"ha":789,"o":"m 315 278 q 206 422 103 571 q 82 601 78 606 q 65 623 55 630 q 45 638 30 644 q 11 651 5 658 q 0 665 0 677 q 0 693 12 702 q 24 711 47 711 l 293 711 q 316 711 327 703 q 339 694 339 678 q 339 657 313 644 q 287 631 287 622 q 287 610 313 573 q 338 536 432 416 q 502 504 539 557 q 575 609 575 623 q 575 630 553 647 q 531 664 531 683 q 531 697 542 704 q 553 711 574 711 l 742 711 q 764 711 776 703 q 788 694 788 679 q 788 668 783 662 q 778 655 765 649 q 763 648 754 645 q 745 642 738 638 q 730 633 717 614 q 711 605 708 601 q 706 598 697 585 q 606 455 498 313 l 498 129 q 498 110 503 101 q 508 91 520 85 q 524 83 534 79 q 568 66 568 42 q 568 21 553 10 q 539 0 508 0 l 305 0 q 274 0 260 10 q 245 21 245 42 q 245 66 279 79 q 289 83 293 85 q 305 91 310 101 q 315 110 315 129 z"},"c":{"x_min":0,"x_max":530,"ha":530,"o":"m 460 292 q 454 281 448 276 q 442 271 434 271 q 418 271 403 318 q 399 333 396 341 q 384 377 360 397 q 336 418 306 418 q 257 418 229 374 q 200 329 200 253 q 200 171 239 120 q 277 69 338 69 q 370 69 397 81 q 424 92 455 119 q 460 124 471 134 q 495 158 507 158 q 517 158 523 151 q 530 144 530 133 q 530 119 519 101 q 508 83 487 61 q 454 25 407 7 q 361 -11 303 -11 q 183 -11 109 55 q 35 122 35 230 q 35 280 59 329 q 82 377 125 414 q 164 447 213 465 q 263 482 319 482 q 389 482 451 457 q 512 432 512 410 q 512 406 511 401 q 510 396 507 391 z"},"!":{"x_min":0,"x_max":309,"ha":309,"o":"m 108 0 q 88 0 81 8 q 73 17 73 39 l 73 133 q 73 155 81 164 q 88 172 108 172 l 201 172 q 221 172 228 164 q 236 155 236 133 l 236 39 q 236 17 228 8 q 221 0 201 0 z m 147 212 q 131 212 129 227 q 128 231 128 233 l 75 533 q 69 567 65 593 q 62 618 62 631 q 62 675 86 699 q 110 723 155 723 q 199 723 223 699 q 247 675 247 631 q 247 618 244 593 q 240 567 234 533 l 181 233 q 181 231 180 228 q 177 212 162 212 z"},"/":{"x_min":0,"x_max":544,"ha":544,"o":"m 145 -75 q 144 -78 142 -82 q 136 -93 118 -93 l 55 -93 q 44 -93 39 -90 q 33 -87 33 -81 q 33 -78 35 -74 q 36 -70 40 -64 l 475 707 q 481 718 485 721 q 490 723 500 723 l 553 723 q 558 723 561 721 q 564 719 564 716 q 564 714 562 709 q 561 704 558 699 z"},"[":{"x_min":0,"x_max":345,"ha":345,"o":"m 206 -53 l 326 -53 l 326 -121 l 93 -121 l 93 711 l 326 711 l 326 644 l 206 644 z"},"6":{"x_min":0,"x_max":623,"ha":623,"o":"m 228 207 q 228 148 252 114 q 276 80 316 80 q 355 80 378 111 q 401 142 401 195 q 401 253 377 289 q 354 324 316 324 q 277 324 252 292 q 228 260 228 207 z m 227 382 q 264 402 302 412 q 340 422 379 422 q 477 422 533 366 q 590 310 590 213 q 590 110 520 47 q 451 -16 336 -16 q 200 -16 120 74 q 41 165 41 322 q 41 496 130 596 q 219 697 373 697 q 463 697 515 661 q 568 625 568 565 q 568 526 540 501 q 513 476 470 476 q 441 476 417 489 q 393 502 393 513 q 393 514 405 527 q 417 540 417 554 q 417 579 398 595 q 379 612 351 612 q 293 612 260 555 q 227 498 227 395 z"},"r":{"x_min":0,"x_max":440,"ha":440,"o":"m 190 480 q 198 485 204 487 q 210 489 216 489 q 226 489 230 481 q 234 474 234 456 l 234 370 q 278 430 316 457 q 354 483 397 483 q 428 483 445 475 q 462 467 462 453 q 462 445 448 405 q 436 370 428 347 q 426 340 422 328 q 409 285 393 285 q 387 285 382 290 q 377 294 367 310 q 352 333 340 341 q 329 348 314 348 q 275 348 255 321 q 235 293 235 241 l 235 124 q 235 105 240 94 q 245 83 257 74 q 261 71 270 66 q 294 51 294 33 q 294 18 284 9 q 274 0 257 0 l 69 0 q 51 0 40 9 q 29 19 29 34 q 29 53 56 68 q 65 73 69 76 q 82 84 87 96 q 93 108 93 128 l 93 307 q 93 325 89 332 q 84 338 70 343 q 68 344 66 344 q 35 356 35 373 q 35 381 44 390 q 52 398 82 416 z"},"2":{"x_min":0,"x_max":623,"ha":623,"o":"m 64 0 q 41 0 30 13 q 19 25 19 52 q 19 88 59 136 q 98 184 191 258 q 302 346 340 397 q 379 449 379 497 q 379 543 351 574 q 322 604 278 604 q 240 604 214 584 q 188 563 188 534 q 188 516 200 502 q 212 489 228 489 q 240 489 251 498 q 263 507 264 507 q 269 507 273 496 q 278 485 278 471 q 278 428 247 399 q 216 370 171 370 q 114 370 79 406 q 45 443 45 504 q 45 592 111 645 q 177 698 287 698 q 412 698 489 640 q 566 582 566 489 q 566 435 538 388 q 511 341 455 301 q 454 300 372 257 q 289 214 213 161 l 390 161 q 430 161 454 166 q 479 170 498 181 q 510 188 528 205 q 546 222 556 222 q 564 222 569 217 q 573 211 573 202 q 573 195 571 186 q 568 176 563 164 l 516 38 q 506 11 499 6 q 492 0 465 0 z"},"{":{"x_min":0,"x_max":500,"ha":500,"o":"m 416 740 l 416 710 q 357 709 335 684 q 314 658 314 581 l 314 516 q 314 406 288 366 q 262 326 192 310 q 262 294 288 255 q 314 215 314 105 l 314 39 q 314 -38 335 -63 q 357 -89 416 -90 l 416 -119 q 301 -119 260 -84 q 218 -48 218 50 l 218 144 q 218 225 190 255 q 163 285 87 292 l 87 329 q 163 336 190 366 q 218 396 218 477 l 218 571 q 218 669 260 705 q 301 740 416 740 z"},"9":{"x_min":0,"x_max":623,"ha":623,"o":"m 220 488 q 220 427 242 394 q 263 360 302 360 q 344 360 367 391 q 389 422 389 481 q 389 544 368 578 q 346 612 307 612 q 268 612 244 578 q 220 545 220 488 z m 394 306 q 359 285 322 275 q 285 264 247 264 q 151 264 92 321 q 33 377 33 469 q 33 572 106 635 q 179 698 298 698 q 428 698 505 609 q 582 520 582 370 q 582 196 492 90 q 402 -16 257 -16 q 167 -16 112 22 q 56 60 56 119 q 56 166 83 193 q 110 219 158 219 q 184 219 209 202 q 235 186 235 176 q 235 175 230 170 q 207 148 207 125 q 207 103 224 89 q 240 75 267 75 q 327 75 361 129 q 395 184 395 278 q 395 289 395 295 q 395 301 394 306 z"}," ":{"x_min":0,"x_max":311,"ha":311,"o":""},"I":{"x_min":0,"x_max":383,"ha":383,"o":"m 92 0 q 61 0 47 10 q 32 21 32 42 q 32 66 66 79 q 76 83 80 85 q 92 91 97 101 q 102 111 102 130 l 102 581 q 102 600 97 610 q 92 620 80 626 q 75 628 66 632 q 32 645 32 669 q 32 691 47 701 q 61 711 92 711 l 291 711 q 322 711 336 701 q 350 691 350 669 q 350 645 317 632 q 307 628 303 626 q 291 620 286 610 q 281 600 281 581 l 281 130 q 281 111 286 101 q 291 91 303 85 q 307 83 317 79 q 350 66 350 42 q 350 20 336 10 q 322 0 291 0 z"},"H":{"x_min":0,"x_max":839,"ha":839,"o":"m 89 0 q 58 0 43 10 q 29 21 29 42 q 29 66 63 79 q 73 83 77 85 q 89 91 94 101 q 99 111 99 130 l 99 581 q 99 600 94 610 q 89 620 77 626 q 73 628 63 632 q 29 645 29 669 q 29 691 43 701 q 58 711 89 711 l 287 711 q 318 711 333 701 q 347 691 347 669 q 347 645 313 632 q 304 628 300 626 q 288 620 282 610 q 277 600 277 581 l 277 471 q 277 450 288 439 q 299 428 319 428 l 520 428 q 541 428 551 439 q 562 450 562 471 l 562 581 q 562 600 557 610 q 552 620 540 626 q 535 628 526 632 q 492 645 492 669 q 492 691 507 701 q 521 711 552 711 l 750 711 q 781 711 796 701 q 810 691 810 669 q 810 645 776 632 q 767 628 762 626 q 750 620 745 610 q 740 600 740 581 l 740 130 q 740 111 745 101 q 750 91 762 85 q 767 83 776 79 q 810 66 810 42 q 810 21 796 10 q 781 0 750 0 l 552 0 q 521 0 507 10 q 492 21 492 42 q 492 66 526 79 q 536 83 540 85 q 552 91 557 101 q 562 111 562 130 l 562 286 q 562 307 551 318 q 541 329 520 329 l 319 329 q 299 329 288 318 q 277 307 277 286 l 277 130 q 277 111 282 101 q 288 91 300 85 q 304 83 314 79 q 347 66 347 42 q 347 21 333 10 q 318 0 287 0 z"},"4":{"x_min":0,"x_max":623,"ha":623,"o":"m 341 293 l 341 551 l 177 293 z m 322 0 q 298 0 286 10 q 275 19 275 39 q 275 55 284 64 q 292 73 327 85 q 335 88 338 93 q 341 97 341 108 l 341 129 l 341 173 l 73 173 q 44 173 32 183 q 20 194 20 219 q 20 239 28 260 q 37 280 55 306 l 281 631 q 309 672 323 681 q 337 690 362 690 l 458 690 q 486 690 494 683 q 503 676 503 646 l 503 293 l 547 293 q 559 293 561 290 q 564 286 564 275 l 564 191 q 564 180 561 177 q 558 173 550 173 l 503 173 l 503 111 q 503 89 524 81 q 527 80 529 79 q 546 71 555 61 q 564 50 564 37 q 564 19 551 10 q 538 0 514 0 z"},"~":{"x_min":0,"x_max":833,"ha":833,"o":"m 747 392 l 747 284 q 696 250 651 233 q 606 217 562 217 q 540 217 517 221 q 495 225 472 232 q 460 236 438 244 q 331 281 275 281 q 233 281 188 262 q 143 244 87 204 l 87 312 q 139 347 187 365 q 234 382 276 382 q 333 382 418 354 l 420 353 q 429 350 447 344 q 522 317 564 317 q 605 317 649 335 q 693 353 747 392 z"},"D":{"x_min":0,"x_max":804,"ha":804,"o":"m 288 156 q 288 122 299 111 q 310 99 340 99 q 444 99 502 161 q 560 222 560 333 q 560 451 499 528 q 438 606 350 606 q 317 606 302 593 q 288 580 288 550 z m 111 130 l 111 581 q 111 600 106 610 q 101 620 89 626 q 84 628 75 632 q 41 645 41 669 q 41 691 55 701 q 70 711 101 711 l 241 711 q 345 711 424 692 q 502 672 566 632 q 662 570 714 485 q 765 400 765 301 q 765 158 662 79 q 559 0 369 0 l 101 0 q 70 0 55 10 q 41 21 41 42 q 41 66 75 79 q 84 83 89 85 q 101 91 106 101 q 111 111 111 130 z"},"^":{"x_min":0,"x_max":1000,"ha":1000,"o":"m 442 714 l 557 714 l 797 438 l 742 438 l 499 620 l 256 438 l 201 438 z"},"0":{"x_min":0,"x_max":623,"ha":623,"o":"m 224 348 q 224 178 243 125 q 263 72 312 72 q 359 72 377 122 q 395 171 395 339 q 395 516 377 567 q 359 618 311 618 q 290 618 271 604 q 251 589 240 565 q 231 546 228 497 q 224 449 224 348 z m 313 -17 q 191 -17 115 82 q 38 181 38 340 q 38 420 58 485 q 79 551 119 601 q 158 649 207 674 q 255 698 311 698 q 431 698 507 600 q 584 501 584 344 q 584 183 509 83 q 433 -17 313 -17 z"},"F":{"x_min":0,"x_max":674,"ha":674,"o":"m 99 130 l 99 581 q 99 600 94 610 q 89 620 77 626 q 73 628 63 632 q 29 645 29 669 q 29 691 43 701 q 58 711 89 711 l 486 711 q 515 711 540 724 q 566 737 575 737 q 588 737 601 726 q 614 714 644 669 q 680 615 699 579 q 719 542 719 530 q 719 520 711 512 q 703 505 691 505 q 677 505 631 542 q 611 558 599 567 q 563 594 525 606 q 487 617 405 617 q 322 617 302 605 q 282 593 282 549 l 282 502 q 282 476 291 468 q 300 459 330 459 q 355 459 372 461 q 388 464 399 469 q 408 473 425 487 q 441 500 451 500 q 461 500 469 493 q 478 486 488 467 l 554 347 q 559 337 561 330 q 563 323 563 317 q 563 304 554 296 q 545 287 532 287 q 515 287 484 314 q 467 329 457 336 q 429 355 402 363 q 375 371 335 371 q 299 371 288 359 q 277 346 277 301 l 277 130 q 277 111 282 101 q 288 91 300 85 q 304 83 314 79 q 347 66 347 42 q 347 21 333 10 q 318 0 287 0 l 89 0 q 58 0 43 10 q 29 21 29 42 q 29 66 63 79 q 73 83 77 85 q 89 91 94 101 q 99 111 99 130 z"},"`":{"x_min":0,"x_max":500,"ha":500,"o":"m 245 547 l 90 665 q 85 668 83 672 q 80 676 80 680 q 80 686 86 690 q 92 694 100 694 l 207 694 q 215 694 221 690 q 227 687 234 677 l 317 561 q 321 555 324 551 q 326 546 326 544 q 326 541 320 538 q 314 536 305 536 l 275 536 q 266 536 259 539 q 252 541 245 547 z"},"k":{"x_min":0,"x_max":563,"ha":563,"o":"m 78 532 q 78 552 74 559 q 70 565 56 571 q 54 572 52 572 q 21 584 21 602 q 21 611 30 621 q 40 630 61 643 l 177 714 q 184 719 190 721 q 196 723 202 723 q 213 723 218 717 q 222 710 222 694 l 222 291 q 270 332 294 359 q 319 386 319 399 q 319 405 298 416 q 278 426 278 442 q 278 457 288 463 q 297 470 319 470 l 464 470 q 488 470 499 463 q 509 457 509 441 q 509 416 464 404 l 462 404 q 444 399 428 388 q 413 377 387 350 l 486 149 q 489 144 493 135 q 523 75 547 63 l 548 62 q 569 50 569 29 q 569 16 561 8 q 553 0 540 0 l 429 0 q 417 0 410 5 q 403 10 394 30 l 283 252 l 220 194 l 220 124 q 220 105 225 94 q 230 83 243 74 q 247 71 255 66 q 279 52 279 33 q 279 18 269 9 q 259 0 242 0 l 56 0 q 39 0 29 9 q 19 18 19 33 q 19 51 43 66 q 52 71 56 74 q 68 83 73 94 q 78 105 78 124 z"},"u":{"x_min":0,"x_max":569,"ha":569,"o":"m 155 477 q 165 481 173 483 q 182 485 189 485 q 202 485 208 475 q 213 466 213 442 l 213 269 q 213 165 226 133 q 239 100 274 100 q 310 100 332 127 q 355 155 355 199 l 355 324 q 355 342 351 348 q 347 354 333 360 l 331 361 q 301 373 301 390 q 301 400 311 411 q 322 421 342 430 l 451 479 q 461 484 467 486 q 473 488 478 488 q 488 488 492 480 q 496 473 496 455 l 496 123 q 496 104 501 93 q 506 82 519 73 q 523 70 532 65 q 556 50 556 32 q 556 17 546 9 q 536 0 518 0 l 387 0 q 367 0 362 5 q 356 9 355 25 l 353 63 q 312 23 277 6 q 242 -11 203 -11 q 163 -11 134 7 q 104 25 91 57 q 82 78 78 111 q 74 145 74 221 l 74 269 l 74 301 q 74 329 72 341 q 69 353 64 358 q 62 360 40 370 q 18 379 18 396 q 18 406 29 416 q 39 426 59 435 z"},"]":{"x_min":0,"x_max":345,"ha":345,"o":"m 139 642 l 19 642 l 19 711 l 252 711 l 252 -121 l 19 -121 l 19 -54 l 139 -54 z"},"U":{"x_min":0,"x_max":714,"ha":714,"o":"m 295 711 q 317 711 329 701 q 341 692 341 674 q 341 647 303 637 q 289 633 285 630 q 265 616 260 517 q 259 497 258 486 l 245 282 q 245 275 244 267 q 244 259 244 243 q 244 158 278 121 q 312 84 388 84 q 469 84 509 121 q 549 158 549 232 q 549 250 548 265 q 548 279 547 293 l 534 499 l 534 502 q 528 616 509 630 q 501 635 487 643 q 458 658 458 678 q 458 695 467 703 q 477 711 495 711 l 656 711 q 676 711 687 702 q 698 693 698 676 q 698 655 669 642 q 661 638 656 636 q 641 628 635 619 q 629 610 629 594 q 629 588 629 585 q 629 582 630 578 l 647 358 q 647 349 649 332 q 656 228 656 197 q 656 93 585 40 q 514 -12 373 -12 q 211 -12 135 44 q 58 100 58 217 q 58 242 65 314 q 68 347 70 365 l 89 556 q 90 565 90 574 q 91 583 91 593 q 91 611 86 620 q 81 629 64 637 q 61 639 55 641 q 24 654 24 676 q 24 691 35 701 q 45 711 63 711 z"},"o":{"x_min":0,"x_max":602,"ha":602,"o":"m 175 316 q 175 281 184 243 q 194 206 212 169 q 239 113 269 87 q 300 60 337 60 q 375 60 398 89 q 421 118 421 167 q 421 201 410 242 q 399 282 378 323 q 355 367 321 394 q 287 420 254 420 q 218 420 196 392 q 175 364 175 316 z m 311 -12 q 179 -12 104 53 q 28 118 28 230 q 28 281 46 326 q 64 371 99 406 q 136 445 182 463 q 228 482 286 482 q 338 482 389 463 q 440 444 479 411 q 526 371 550 319 q 574 268 574 207 q 574 107 503 48 q 431 -12 311 -12 z"},"N":{"x_min":0,"x_max":787,"ha":787,"o":"m 95 607 q 95 614 87 620 q 79 627 64 633 q 46 640 40 648 q 33 656 33 669 q 33 691 48 701 q 62 711 93 711 l 247 711 q 261 711 272 707 q 282 704 290 696 l 597 365 l 597 581 q 597 600 592 610 q 587 620 575 626 q 570 628 561 632 q 527 645 527 669 q 527 691 541 701 q 556 711 587 711 l 710 711 q 741 711 756 701 q 770 691 770 669 q 770 645 736 632 q 727 628 722 626 q 710 620 705 610 q 700 600 700 581 l 700 14 q 700 6 697 3 q 694 0 687 0 l 606 0 q 599 0 596 3 q 593 6 593 14 l 593 81 q 593 118 550 163 q 546 168 544 170 l 210 531 l 210 132 q 210 112 215 102 q 220 92 232 86 q 236 84 246 80 q 280 67 280 43 q 280 21 266 10 q 251 0 220 0 l 85 0 q 54 0 39 10 q 25 21 25 43 q 25 67 58 80 q 68 84 72 86 q 84 92 90 102 q 95 113 95 132 z"},"+":{"x_min":0,"x_max":833,"ha":833,"o":"m 367 596 l 466 596 l 466 347 l 709 347 l 709 250 l 466 250 l 466 0 l 367 0 l 367 250 l 124 250 l 124 347 l 367 347 z"},"G":{"x_min":0,"x_max":856,"ha":856,"o":"m 570 0 q 426 0 348 14 q 271 29 211 62 q 127 108 83 183 q 38 258 38 353 q 38 430 68 496 q 97 563 154 614 q 212 667 291 695 q 371 723 460 723 q 488 723 531 718 q 574 713 589 713 q 605 713 621 730 q 636 747 650 747 q 667 747 687 698 q 692 686 695 679 l 723 612 q 741 568 746 552 q 752 535 752 527 q 752 516 745 508 q 738 500 729 500 q 715 500 684 530 q 668 545 659 553 q 612 594 567 614 q 522 633 474 633 q 377 633 313 560 q 249 487 249 375 q 249 249 315 177 q 381 104 496 104 q 542 104 561 117 q 581 130 581 160 l 581 247 q 581 266 576 275 q 571 285 559 291 q 554 293 545 297 q 514 310 514 332 q 514 354 528 363 q 541 373 571 373 l 760 373 q 790 373 803 364 q 817 354 817 333 q 817 310 785 297 q 776 293 771 291 q 760 285 755 275 q 750 265 750 247 l 750 131 q 750 112 755 102 q 759 93 772 86 q 777 83 788 79 q 820 66 820 43 q 820 21 805 10 q 791 0 760 0 z"},"q":{"x_min":0,"x_max":589,"ha":589,"o":"m 304 99 q 349 99 368 131 q 387 163 387 244 q 387 328 361 370 q 335 412 283 412 q 235 412 204 375 q 174 338 174 280 q 174 208 214 154 q 255 99 304 99 z m 531 -41 q 531 -60 536 -71 q 541 -83 553 -91 q 558 -94 566 -99 q 590 -113 590 -131 q 590 -146 580 -155 q 570 -164 553 -164 l 365 -164 q 348 -164 337 -155 q 327 -146 327 -131 q 327 -113 351 -99 q 359 -94 364 -91 q 376 -82 382 -71 q 387 -60 387 -41 l 387 54 q 354 21 317 5 q 279 -11 232 -11 q 144 -11 91 49 q 39 109 39 210 q 39 256 52 299 q 66 341 92 377 q 129 428 177 455 q 224 481 278 481 q 304 481 336 470 q 369 460 407 439 q 445 461 470 473 q 496 486 502 486 q 518 486 524 474 q 531 462 531 427 z"},"d":{"x_min":0,"x_max":605,"ha":605,"o":"m 174 277 q 174 203 213 151 q 252 100 307 100 q 349 100 373 135 q 397 170 397 232 q 397 325 370 370 q 343 416 289 416 q 239 416 207 377 q 174 337 174 277 z m 392 550 q 392 567 388 575 q 384 583 374 588 q 372 589 366 591 q 338 602 338 619 q 338 628 348 637 q 359 646 384 660 l 490 715 q 499 719 505 721 q 511 723 515 723 q 524 723 528 717 q 532 710 532 694 l 532 134 q 532 109 537 99 q 541 89 554 80 q 558 77 565 73 q 590 58 590 40 q 590 30 583 23 q 577 16 564 12 q 528 1 487 -5 q 447 -12 424 -12 q 404 -12 397 0 q 390 13 389 58 q 350 24 312 8 q 274 -8 235 -8 q 146 -8 89 55 q 32 119 32 217 q 32 259 44 298 q 57 337 81 372 q 118 424 168 452 q 219 480 275 480 q 307 480 335 471 q 364 462 392 443 z"},"1":{"x_min":0,"x_max":623,"ha":623,"o":"m 245 159 l 245 458 q 245 476 238 484 q 230 492 213 494 q 204 495 186 497 q 123 503 123 534 q 123 546 133 558 q 143 570 160 580 l 355 687 q 365 692 375 696 q 384 699 390 699 q 402 699 406 692 q 411 685 411 663 l 411 151 q 411 118 417 104 q 422 90 437 83 q 443 80 455 76 q 494 63 494 35 q 494 20 481 10 q 468 0 448 0 l 198 0 q 173 0 161 9 q 150 17 150 36 q 150 62 190 75 q 207 81 216 85 q 232 92 239 108 q 245 124 245 159 z"},"5":{"x_min":0,"x_max":623,"ha":623,"o":"m 231 432 q 263 444 294 451 q 325 457 355 457 q 454 457 512 400 q 571 342 571 245 q 571 131 483 57 q 395 -16 256 -16 q 153 -16 88 29 q 23 75 23 144 q 23 186 52 217 q 82 247 122 247 q 159 247 190 221 q 221 196 221 169 q 221 166 220 164 q 219 163 215 163 l 204 163 q 193 163 185 153 q 177 143 177 129 q 177 105 198 89 q 220 73 254 73 q 312 73 347 113 q 383 152 383 215 q 383 277 344 316 q 306 355 244 355 q 197 355 146 333 q 94 311 91 311 q 83 311 78 316 q 73 321 73 331 q 73 336 75 344 q 77 352 81 363 l 195 659 q 200 672 209 677 q 217 681 238 681 l 470 681 q 502 681 528 698 q 554 714 558 714 q 565 714 571 708 q 576 703 576 695 q 576 694 575 690 q 574 686 572 680 l 531 570 q 524 552 514 545 q 504 539 475 539 l 275 539 z"}}}
